<?xml version="1.0" encoding="utf-8"?>
<!-- Generator: Adobe Illustrator 19.2.1, SVG Export Plug-In . SVG Version: 6.00 Build 0)  -->
<svg version="1.1" id="Capa_1" xmlns="http://www.w3.org/2000/svg" xmlns:xlink="http://www.w3.org/1999/xlink" x="0px" y="0px"
	 viewBox="0 0 800 280" style="enable-background:new 0 0 800 280;" xml:space="preserve">
<g>
	<path style="fill:#A9B1A9;" d="M22.7,3.2l755.7,1.3c10.6,0,20-1.6,20,21.1l-0.9,248.9H3.6V24.7C3.6,13.5,4.7,3.2,22.7,3.2"/>
	<path style="fill:#FFFFFF;" d="M230.1,130.5c0,50.2-40.6,90.9-90.8,90.9c-50.2,0-90.9-40.6-91-90.8c0,0,0-0.1,0-0.1
		c0-50.2,40.7-90.9,90.8-90.9c50.2,0,90.9,40.6,91,90.8C230.1,130.4,230.1,130.5,230.1,130.5"/>
	<path d="M184.2,120.4c-2.6-5.7-6.4-8.5-11.5-8.5c-9.4,0-14.1,6.2-14.1,18.6c0,12.4,4.7,18.6,14.1,18.6c6.1,0,10.3-3,12.7-9l13,6.8
		c-6.1,10.8-15.2,16.2-27.3,16.2c-9.4,0-16.9-2.9-22.5-8.6c-5.6-5.8-8.4-13.7-8.4-23.8c0-9.9,2.9-17.8,8.6-23.6
		c5.7-5.8,13-8.7,21.8-8.7c12.8,0,22,5.1,27.5,15.2L184.2,120.4L184.2,120.4z M124.3,120.4c-2.6-5.7-6.5-8.5-11.7-8.5
		c-9.2,0-13.8,6.2-13.8,18.6c0,12.4,4.6,18.6,13.8,18.6c6.1,0,10.4-3,13-9l12.7,6.8c-6.1,10.8-15.2,16.2-27.3,16.2
		c-9.4,0-16.9-2.9-22.5-8.6c-5.6-5.8-8.5-13.7-8.5-23.8c0-9.9,2.9-17.8,8.7-23.6c5.8-5.8,13.1-8.7,21.7-8.7c12.9,0,22,5.1,27.6,15.2
		L124.3,120.4L124.3,120.4z M79.4,70c-17,17.2-25.6,37.4-25.6,60.5c0,23.1,8.4,43.1,25.3,60c16.9,16.9,36.9,25.3,60.2,25.3
		c23.3,0,43.6-8.5,60.8-25.5c16.3-15.8,24.5-35.7,24.5-59.7c0-23.8-8.3-44-24.9-60.6C183.2,53.3,163.1,45,139.4,45
		C115.8,45,95.8,53.4,79.4,70L79.4,70z M213.1,56.5c20.1,20.2,30.2,44.8,30.2,74c0,29.2-9.9,53.6-29.7,73.3
		c-21,20.7-45.9,31-74.6,31c-28.3,0-52.7-10.2-73.2-30.8c-20.5-20.5-30.8-45-30.8-73.5c0-28.5,10.2-53.2,30.8-74
		c20-20.2,44.4-30.3,73.2-30.3C168.3,26.2,193,36.3,213.1,56.5"/>
	<g>
		<path d="M15,6.8h770c4.5,0,8.2,3.7,8.2,8.2c0,0,0,105.5,0,181.7H242.9c-20.2,36.5-59,61.2-103.6,61.2
			c-44.6,0-83.5-24.7-103.6-61.2H6.8c0-76.2,0-181.7,0-181.7C6.8,10.5,10.4,6.8,15,6.8L15,6.8z M785,0H15C6.7,0,0,6.7,0,15v261.7
			c0,1.9,1.5,3.4,3.4,3.4h793.2c1.9,0,3.4-1.5,3.4-3.4V15C800,6.7,793.3,0,785,0"/>
	</g>
	<path style="fill:#FFFFFF;" d="M575.1,251.6c0.5,1,1.2,1.9,2.1,2.5c0.9,0.6,1.9,1.1,3.1,1.4c1.2,0.3,2.4,0.5,3.7,0.5
		c0.9,0,1.8-0.1,2.8-0.2c1-0.2,1.9-0.4,2.8-0.8c0.9-0.4,1.6-1,2.2-1.7c0.6-0.7,0.9-1.6,0.9-2.8c0-1.2-0.4-2.2-1.1-2.9
		c-0.8-0.7-1.8-1.4-3-1.9c-1.2-0.5-2.6-0.9-4.2-1.3c-1.6-0.4-3.2-0.8-4.8-1.2c-1.7-0.4-3.3-0.9-4.8-1.5c-1.6-0.6-3-1.4-4.2-2.3
		c-1.2-0.9-2.2-2.1-3-3.6c-0.8-1.4-1.1-3.1-1.1-5.2c0-2.3,0.5-4.2,1.5-5.9c1-1.7,2.2-3,3.8-4.2c1.6-1.1,3.3-1.9,5.3-2.5
		c2-0.5,4-0.8,5.9-0.8c2.3,0,4.5,0.3,6.6,0.8c2.1,0.5,4,1.3,5.6,2.5c1.6,1.2,3,2.6,3.9,4.4c1,1.8,1.5,4,1.5,6.5h-9.4
		c-0.1-1.3-0.4-2.4-0.8-3.3c-0.5-0.9-1.1-1.5-1.9-2c-0.8-0.5-1.7-0.8-2.7-1c-1-0.2-2.1-0.3-3.3-0.3c-0.8,0-1.6,0.1-2.3,0.2
		c-0.8,0.2-1.5,0.5-2.1,0.9c-0.6,0.4-1.2,0.9-1.6,1.6c-0.4,0.6-0.6,1.4-0.6,2.3c0,0.9,0.2,1.6,0.5,2.1c0.3,0.5,1,1,2,1.5
		c1,0.5,2.3,0.9,4,1.4c1.7,0.5,4,1,6.7,1.7c0.8,0.2,2,0.5,3.4,0.9c1.5,0.4,2.9,1.1,4.4,2.1c1.4,0.9,2.7,2.2,3.7,3.8
		c1,1.6,1.6,3.6,1.6,6.1c0,2-0.4,3.9-1.2,5.6c-0.8,1.7-2,3.2-3.5,4.5c-1.5,1.3-3.5,2.2-5.8,2.9c-2.3,0.7-4.9,1-7.9,1
		c-2.4,0-4.8-0.3-7.1-0.9c-2.3-0.6-4.3-1.5-6.1-2.8c-1.7-1.3-3.1-2.9-4.2-4.9c-1-2-1.5-4.3-1.5-7h9.4
		C574.3,249.3,574.6,250.6,575.1,251.6"/>
	<path style="fill:#FFFFFF;" d="M630.4,245.4l-5.6-16.2h-0.1l-5.8,16.2H630.4L630.4,245.4z M629.8,218.3l16.5,44.2h-10.1l-3.3-9.8
		h-16.5l-3.5,9.8h-9.8l16.7-44.2H629.8"/>
	<path style="fill:#FFFFFF;" d="M399.3,254.9c0.9,0,1.9-0.1,2.7-0.3c0.9-0.2,1.6-0.5,2.3-0.9c0.6-0.4,1.2-1,1.6-1.8
		c0.4-0.7,0.6-1.7,0.6-2.9c0-2.3-0.6-3.9-1.9-4.8c-1.3-1-3-1.4-5.1-1.4h-10.6v12.1H399.3L399.3,254.9z M398.7,236.2
		c1.7,0,3.2-0.4,4.3-1.2c1.1-0.8,1.7-2.2,1.7-4c0-1-0.2-1.9-0.5-2.5c-0.4-0.6-0.9-1.2-1.5-1.5c-0.6-0.4-1.3-0.6-2.1-0.8
		c-0.8-0.1-1.6-0.2-2.5-0.2h-9.1v10.3H398.7L398.7,236.2z M400,218.3c2.1,0,4,0.2,5.8,0.6c1.7,0.4,3.2,1,4.5,1.8
		c1.2,0.9,2.2,2,2.9,3.4c0.7,1.4,1,3.1,1,5.2c0,2.2-0.5,4.1-1.5,5.5c-1,1.5-2.5,2.7-4.5,3.7c2.7,0.8,4.8,2.2,6.1,4.1
		c1.3,2,2,4.3,2,7.1c0,2.2-0.5,4.1-1.3,5.8c-0.9,1.6-2,3-3.5,4c-1.5,1-3.2,1.8-5,2.3c-1.9,0.5-3.8,0.7-5.8,0.7h-21.4v-44.2H400"/>
	<polyline style="fill:#FFFFFF;" points="417.9,218.3 428.8,218.3 439.2,235.8 449.4,218.3 460.3,218.3 443.9,245.5 443.9,262.5 
		434.1,262.5 434.1,245.3 417.9,218.3 	"/>
	<path style="fill:#FFFFFF;" d="M682.7,99.9c0,39-31.5,70.6-70.5,70.6c-39,0-70.6-31.5-70.6-70.5c0,0,0-0.1,0-0.1
		c0-39,31.5-70.6,70.5-70.6c39,0,70.6,31.5,70.6,70.5C682.7,99.8,682.7,99.8,682.7,99.9"/>
	<path d="M611.8,36.5c17.5,0,32.5,6.2,44.7,18.6c12.4,12.2,18.6,27.2,18.6,44.8c0,17.8-6.1,32.5-18.2,44.3
		c-12.8,12.6-27.8,18.9-45.1,18.9c-17.3,0-32.2-6.2-44.7-18.7c-12.5-12.5-18.8-27.3-18.8-44.5c0-17.1,6.3-32.1,19-44.8
		C579.4,42.7,594.3,36.5,611.8,36.5L611.8,36.5z M611.6,22.6c-21.4,0-39.5,7.5-54.4,22.4c-15.2,15.5-22.8,33.8-22.8,54.9
		c0,21.1,7.6,39.3,22.8,54.5c15.2,15.2,33.3,22.8,54.4,22.8c21.3,0,39.7-7.7,55.3-23c14.7-14.6,22.1-32.7,22.1-54.3
		c0-21.6-7.5-39.9-22.5-54.9C651.6,30.1,633.3,22.6,611.6,22.6"/>
	<path d="M577.3,89c3.1-19.4,16.8-29.8,33.9-29.8C636,59.1,651,77,651,100.9c0,23.3-16,41.4-40.1,41.4c-16.6,0-31.4-10.2-34.1-30.2
		h19.5c0.6,10.4,7.3,14.1,17,14.1c11,0,18.1-10.2,18.1-25.8c0-16.4-6.2-25-17.7-25c-8.5,0-15.8,3.1-17.3,13.7l5.7,0l-15.3,15.3
		L571.3,89L577.3,89"/>
	<path style="fill:#FFFFFF;" d="M494,101.5c0,39.5-32.1,71.6-71.6,71.6s-71.6-32.1-71.6-71.6c0-39.6,32.1-71.6,71.6-71.6
		S494,61.9,494,101.5"/>
	<path d="M443.1,80.7c0-2.7-2.2-5-5-5h-31.6c-2.7,0-5,2.2-5,5v31.6h8.8v37.4h24v-37.4h8.8V80.7"/>
	<path d="M433.1,60.8c0,6-4.8,10.8-10.8,10.8c-6,0-10.8-4.8-10.8-10.8c0-6,4.8-10.8,10.8-10.8C428.3,50,433.1,54.8,433.1,60.8"/>
	<path style="fill-rule:evenodd;clip-rule:evenodd;" d="M422.4,36.5c17.6,0,32.4,6.2,44.7,18.6c12.4,12.2,18.6,27.2,18.6,44.8
		c0,17.8-6.1,32.5-18.2,44.3c-12.8,12.6-27.8,18.9-45.1,18.9c-17.3,0-32.2-6.2-44.7-18.7c-12.5-12.5-18.8-27.3-18.8-44.5
		c0-17.1,6.3-32.1,19-44.8C390,42.7,404.9,36.5,422.4,36.5L422.4,36.5z M422.2,22.6c-21.4,0-39.6,7.5-54.4,22.4
		C352.6,60.5,345,78.8,345,99.9c0,21.1,7.6,39.3,22.8,54.5c15.2,15.2,33.3,22.8,54.4,22.8c21.3,0,39.7-7.7,55.3-23
		c14.7-14.6,22.1-32.7,22.1-54.3c0-21.6-7.5-39.9-22.4-54.9C462.2,30.1,443.9,22.6,422.2,22.6"/>
</g>
<g>
</g>
<g>
</g>
<g>
</g>
<g>
</g>
<g>
</g>
<g>
</g>
<g>
</g>
<g>
</g>
<g>
</g>
<g>
</g>
<g>
</g>
<g>
</g>
<g>
</g>
<g>
</g>
<g>
</g>
</svg>
