<?xml version="1.0" encoding="utf-8"?>
<!-- Generator: Adobe Illustrator 19.2.1, SVG Export Plug-In . SVG Version: 6.00 Build 0)  -->
<svg version="1.1" id="Capa_1" xmlns="http://www.w3.org/2000/svg" xmlns:xlink="http://www.w3.org/1999/xlink" x="0px" y="0px"
	 viewBox="0 0 28.6 10" style="enable-background:new 0 0 28.6 10;" xml:space="preserve">
<g>
	<path style="fill:#A9B1A9;" d="M0.8,0.1l27,0c0.4,0,0.7-0.1,0.7,0.8l0,8.9H0.1V0.9C0.1,0.5,0.2,0.1,0.8,0.1"/>
	<path style="fill:#FFFFFF;" d="M8.2,4.7c0,1.8-1.5,3.2-3.2,3.2c-1.8,0-3.2-1.5-3.2-3.2c0,0,0,0,0,0c0-1.8,1.5-3.2,3.2-3.2
		C6.8,1.4,8.2,2.9,8.2,4.7C8.2,4.7,8.2,4.7,8.2,4.7"/>
	<path d="M6.6,4.3C6.5,4.1,6.3,4,6.2,4C5.8,4,5.7,4.2,5.7,4.7c0,0.4,0.2,0.7,0.5,0.7c0.2,0,0.4-0.1,0.5-0.3l0.5,0.2
		c-0.2,0.4-0.5,0.6-1,0.6c-0.3,0-0.6-0.1-0.8-0.3C5.1,5.3,5,5,5,4.7C5,4.3,5.1,4,5.3,3.8c0.2-0.2,0.5-0.3,0.8-0.3
		c0.5,0,0.8,0.2,1,0.5L6.6,4.3L6.6,4.3z M4.4,4.3C4.3,4.1,4.2,4,4,4C3.7,4,3.5,4.2,3.5,4.7c0,0.4,0.2,0.7,0.5,0.7
		c0.2,0,0.4-0.1,0.5-0.3l0.5,0.2C4.7,5.6,4.4,5.8,4,5.8c-0.3,0-0.6-0.1-0.8-0.3C3,5.3,2.9,5,2.9,4.7C2.9,4.3,3,4,3.2,3.8
		c0.2-0.2,0.5-0.3,0.8-0.3c0.5,0,0.8,0.2,1,0.5L4.4,4.3L4.4,4.3z M2.8,2.5C2.2,3.1,1.9,3.8,1.9,4.7c0,0.8,0.3,1.5,0.9,2.1
		C3.4,7.4,4.1,7.7,5,7.7c0.8,0,1.6-0.3,2.2-0.9C7.7,6.2,8,5.5,8,4.7c0-0.9-0.3-1.6-0.9-2.2C6.5,1.9,5.8,1.6,5,1.6
		C4.1,1.6,3.4,1.9,2.8,2.5L2.8,2.5z M7.6,2c0.7,0.7,1.1,1.6,1.1,2.6c0,1-0.4,1.9-1.1,2.6C6.9,8,6,8.4,5,8.4C4,8.4,3.1,8,2.4,7.3
		C1.6,6.6,1.3,5.7,1.3,4.7c0-1,0.4-1.9,1.1-2.6C3.1,1.3,3.9,0.9,5,0.9C6,0.9,6.9,1.3,7.6,2"/>
	<g>
		<path d="M0.5,0.2H28c0.2,0,0.3,0.1,0.3,0.3c0,0,0,3.8,0,6.5H8.7C8,8.3,6.6,9.2,5,9.2C3.4,9.2,2,8.3,1.3,7h-1c0-2.7,0-6.5,0-6.5
			C0.2,0.4,0.4,0.2,0.5,0.2L0.5,0.2z M28,0H0.5C0.2,0,0,0.2,0,0.5v9.3C0,9.9,0.1,10,0.1,10h28.3c0.1,0,0.1-0.1,0.1-0.1V0.5
			C28.6,0.2,28.3,0,28,0"/>
	</g>
	<path style="fill:#FFFFFF;" d="M20.5,9C20.6,9,20.6,9.1,20.5,9c0.1,0.1,0.1,0.1,0.2,0.1c0,0,0.1,0,0.1,0c0,0,0.1,0,0.1,0
		c0,0,0.1,0,0.1,0c0,0,0.1,0,0.1-0.1c0,0,0-0.1,0-0.1c0,0,0-0.1,0-0.1c0,0-0.1,0-0.1-0.1c0,0-0.1,0-0.1,0c-0.1,0-0.1,0-0.2,0
		c-0.1,0-0.1,0-0.2-0.1c-0.1,0-0.1,0-0.1-0.1c0,0-0.1-0.1-0.1-0.1c0-0.1,0-0.1,0-0.2c0-0.1,0-0.2,0.1-0.2c0-0.1,0.1-0.1,0.1-0.1
		c0.1,0,0.1-0.1,0.2-0.1c0.1,0,0.1,0,0.2,0c0.1,0,0.2,0,0.2,0c0.1,0,0.1,0,0.2,0.1c0.1,0,0.1,0.1,0.1,0.2c0,0.1,0.1,0.1,0.1,0.2
		h-0.3c0,0,0-0.1,0-0.1c0,0,0-0.1-0.1-0.1c0,0-0.1,0-0.1,0c0,0-0.1,0-0.1,0c0,0-0.1,0-0.1,0c0,0-0.1,0-0.1,0c0,0,0,0-0.1,0.1
		c0,0,0,0,0,0.1c0,0,0,0.1,0,0.1c0,0,0,0,0.1,0.1c0,0,0.1,0,0.1,0c0.1,0,0.1,0,0.2,0.1c0,0,0.1,0,0.1,0c0.1,0,0.1,0,0.2,0.1
		c0.1,0,0.1,0.1,0.1,0.1c0,0.1,0.1,0.1,0.1,0.2c0,0.1,0,0.1,0,0.2c0,0.1-0.1,0.1-0.1,0.2c-0.1,0-0.1,0.1-0.2,0.1c-0.1,0-0.2,0-0.3,0
		c-0.1,0-0.2,0-0.3,0c-0.1,0-0.2-0.1-0.2-0.1c-0.1,0-0.1-0.1-0.1-0.2c0-0.1-0.1-0.2-0.1-0.3h0.3C20.5,8.9,20.5,8.9,20.5,9"/>
	<path style="fill:#FFFFFF;" d="M22.5,8.8l-0.2-0.6h0l-0.2,0.6H22.5L22.5,8.8z M22.5,7.8l0.6,1.6h-0.4L22.6,9H22l-0.1,0.4h-0.3
		l0.6-1.6H22.5"/>
	<path style="fill:#FFFFFF;" d="M14.3,9.1C14.3,9.1,14.3,9.1,14.3,9.1c0.1,0,0.2,0,0.2,0c0,0,0,0,0.1-0.1c0,0,0-0.1,0-0.1
		c0-0.1,0-0.1-0.1-0.2c0,0-0.1-0.1-0.2-0.1h-0.4v0.4H14.3L14.3,9.1z M14.2,8.4c0.1,0,0.1,0,0.2,0c0,0,0.1-0.1,0.1-0.1
		c0,0,0-0.1,0-0.1c0,0,0,0-0.1-0.1c0,0,0,0-0.1,0c0,0-0.1,0-0.1,0h-0.3v0.4H14.2L14.2,8.4z M14.3,7.8c0.1,0,0.1,0,0.2,0
		c0.1,0,0.1,0,0.2,0.1c0,0,0.1,0.1,0.1,0.1c0,0,0,0.1,0,0.2c0,0.1,0,0.1-0.1,0.2c0,0.1-0.1,0.1-0.2,0.1c0.1,0,0.2,0.1,0.2,0.1
		c0,0.1,0.1,0.2,0.1,0.3c0,0.1,0,0.1,0,0.2c0,0.1-0.1,0.1-0.1,0.1c-0.1,0-0.1,0.1-0.2,0.1c-0.1,0-0.1,0-0.2,0h-0.8V7.8H14.3"/>
	<polyline style="fill:#FFFFFF;" points="14.9,7.8 15.3,7.8 15.7,8.4 16,7.8 16.4,7.8 15.9,8.8 15.9,9.4 15.5,9.4 15.5,8.8 
		14.9,7.8 	"/>
	<path style="fill:#FFFFFF;" d="M24.4,3.6c0,1.4-1.1,2.5-2.5,2.5c-1.4,0-2.5-1.1-2.5-2.5c0,0,0,0,0,0c0-1.4,1.1-2.5,2.5-2.5
		C23.2,1,24.4,2.2,24.4,3.6C24.4,3.6,24.4,3.6,24.4,3.6"/>
	<path d="M21.8,1.3c0.6,0,1.2,0.2,1.6,0.7c0.4,0.4,0.7,1,0.7,1.6c0,0.6-0.2,1.2-0.6,1.6c-0.5,0.5-1,0.7-1.6,0.7
		c-0.6,0-1.1-0.2-1.6-0.7c-0.4-0.4-0.7-1-0.7-1.6c0-0.6,0.2-1.1,0.7-1.6C20.7,1.5,21.2,1.3,21.8,1.3L21.8,1.3z M21.8,0.8
		c-0.8,0-1.4,0.3-1.9,0.8c-0.5,0.6-0.8,1.2-0.8,2c0,0.8,0.3,1.4,0.8,1.9c0.5,0.5,1.2,0.8,1.9,0.8c0.8,0,1.4-0.3,2-0.8
		c0.5-0.5,0.8-1.2,0.8-1.9c0-0.8-0.3-1.4-0.8-2C23.3,1.1,22.6,0.8,21.8,0.8"/>
	<path d="M20.6,3.2c0.1-0.7,0.6-1.1,1.2-1.1c0.9,0,1.4,0.6,1.4,1.5c0,0.8-0.6,1.5-1.4,1.5c-0.6,0-1.1-0.4-1.2-1.1h0.7
		c0,0.4,0.3,0.5,0.6,0.5c0.4,0,0.6-0.4,0.6-0.9c0-0.6-0.2-0.9-0.6-0.9c-0.3,0-0.6,0.1-0.6,0.5l0.2,0l-0.5,0.5l-0.5-0.5L20.6,3.2"/>
	<path style="fill:#FFFFFF;" d="M17.6,3.6c0,1.4-1.1,2.6-2.6,2.6S12.5,5,12.5,3.6c0-1.4,1.1-2.6,2.6-2.6S17.6,2.2,17.6,3.6"/>
	<path d="M15.8,2.9c0-0.1-0.1-0.2-0.2-0.2h-1.1c-0.1,0-0.2,0.1-0.2,0.2V4h0.3v1.3h0.9V4h0.3V2.9"/>
	<path d="M15.5,2.2c0,0.2-0.2,0.4-0.4,0.4c-0.2,0-0.4-0.2-0.4-0.4c0-0.2,0.2-0.4,0.4-0.4C15.3,1.8,15.5,2,15.5,2.2"/>
	<path style="fill-rule:evenodd;clip-rule:evenodd;" d="M15.1,1.3c0.6,0,1.2,0.2,1.6,0.7c0.4,0.4,0.7,1,0.7,1.6
		c0,0.6-0.2,1.2-0.6,1.6c-0.5,0.5-1,0.7-1.6,0.7c-0.6,0-1.1-0.2-1.6-0.7c-0.4-0.4-0.7-1-0.7-1.6C12.8,3,13,2.4,13.5,2
		C13.9,1.5,14.5,1.3,15.1,1.3L15.1,1.3z M15.1,0.8c-0.8,0-1.4,0.3-1.9,0.8c-0.5,0.6-0.8,1.2-0.8,2c0,0.8,0.3,1.4,0.8,1.9
		c0.5,0.5,1.2,0.8,1.9,0.8c0.8,0,1.4-0.3,2-0.8c0.5-0.5,0.8-1.2,0.8-1.9c0-0.8-0.3-1.4-0.8-2C16.5,1.1,15.9,0.8,15.1,0.8"/>
</g>
<g>
</g>
<g>
</g>
<g>
</g>
<g>
</g>
<g>
</g>
<g>
</g>
<g>
</g>
<g>
</g>
<g>
</g>
<g>
</g>
<g>
</g>
<g>
</g>
<g>
</g>
<g>
</g>
<g>
</g>
</svg>
